<?xml version="1.0" standalone="no"?>
<!DOCTYPE svg PUBLIC "-//W3C//DTD SVG 20010904//EN"
 "http://www.w3.org/TR/2001/REC-SVG-20010904/DTD/svg10.dtd">
<svg version="1.0" xmlns="http://www.w3.org/2000/svg"
 width="512.000000pt" height="512.000000pt" viewBox="0 0 512.000000 512.000000"
 preserveAspectRatio="xMidYMid meet">
<metadata>
Created by potrace 1.11, written by Peter Selinger 2001-2013
</metadata>
<g transform="translate(0.000000,512.000000) scale(0.100000,-0.100000)"
fill="#000000" stroke="none">
<path d="M2474 5101 c-392 -83 -699 -392 -825 -831 -49 -167 -63 -283 -63
-505 -1 -194 9 -307 40 -465 8 -41 16 -84 18 -95 2 -11 20 -85 40 -165 71
-291 87 -398 89 -590 1 -238 -44 -420 -147 -593 -49 -82 -165 -210 -239 -263
-28 -21 -54 -41 -57 -44 -6 -7 -103 -66 -170 -103 -87 -48 -267 -120 -485
-194 -121 -40 -229 -78 -240 -83 -11 -5 -55 -23 -97 -40 -123 -50 -189 -90
-249 -149 -90 -90 -89 -85 -89 -568 l0 -413 2561 0 2560 0 -3 432 c-3 421 -4
434 -24 473 -45 83 -138 157 -273 217 -113 50 -124 55 -201 83 -41 14 -88 32
-105 38 -16 7 -32 12 -35 13 -3 0 -14 4 -25 9 -11 4 -54 21 -95 37 -374 147
-617 345 -735 602 -64 138 -92 277 -94 471 -3 191 22 378 81 610 11 44 22 89
24 99 2 10 8 33 13 50 18 54 55 272 70 406 9 76 7 394 -3 462 -76 549 -356
934 -779 1072 -102 33 -124 37 -262 40 -86 3 -143 -1 -201 -13z"/>
</g>
</svg>
